<svg xmlns="http://www.w3.org/2000/svg" viewBox="0 0 1076.85 694.74"><defs><style>.cls-1{fill:#00a261;}.cls-2{opacity:0.14;}.cls-3{fill:#5341b2;}.cls-4{fill:#3e725c;}.cls-4,.cls-5{opacity:0.19;}.cls-5{fill:#7e71c1;}.cls-6{fill:#304273;opacity:0.4;}</style></defs><g id="Layer_2" data-name="Layer 2"><g id="Layer_1-2" data-name="Layer 1"><path class="cls-1" d="M0,548.07V692.82H29.8V548.07Z"/><path class="cls-1" d="M52.15,548.07v26.18h41.3V692.82h29.8V574.25h41.3V548.07Z"/><path class="cls-1" d="M377.42,546.58l-70.25,78.33-71.32-78.33h-2.34V692.82H262V638.54c0-9.79-1.07-25.33-1.07-25.33s8.73,12.77,15.54,20.43l28.74,32.15H308l28.74-32.15c6.81-7.66,15.54-20.43,15.54-20.43s-1.07,15.54-1.07,25.33v54.28H380V546.58Z"/><path class="cls-1" d="M445.32,600.22c-21.29,0-30.87,6.6-39.39,14.9l16,17c4-3.62,9.79-8.3,20.65-8.3,9.58,0,14.69,4.68,15.11,15.11H436.59c-22.35,0-37,7.88-37,27.25,0,21.08,15.32,28.53,31.93,28.53,12.13,0,20-4,26.82-14.48l-.64,12.56h28.53V641.31C486.19,612.78,468.52,600.22,445.32,600.22Zm12.34,59.39c0,7.67-6,12.78-17.67,12.78-8.09,0-12.34-3-12.34-8.09s3.19-8.31,10.43-8.31h19.58Z"/><path class="cls-1" d="M567.29,643l30-40.87H566.65l-7.24,11.28c-3.19,4.89-6.6,14.05-6.6,14.05s-3.62-9.16-6.81-14.05l-7.45-11.28H504.7l30.45,43.21-34.92,47.47h30.66l10.21-15.54c3.84-5.75,8.31-16.18,8.31-16.18s4.47,10.43,8.3,16.18l10.43,15.54H602.2Z"/><path class="cls-1" d="M618,602.14v90.68h28.74V602.14Zm14.47-51.09c-9.79,0-18.3,7.45-18.3,17.88a18.2,18.2,0,0,0,36.4,0A17.76,17.76,0,0,0,632.42,551.05Z"/><path class="cls-1" d="M780.58,600.22c-13.41,0-23.42,6.17-30.87,15.54-5.53-10.64-13.83-15.54-25.54-15.54-10.86,0-19.37,4.9-25.76,16l.64-14.05H670.31v90.68h28.74V644.29c0-12.35,5.11-17.89,16.18-17.89,10.85,0,14,5.75,14,16.4v50H757.8V644.29c0-12.35,4.9-17.89,16-17.89,10.86,0,14.26,5.75,14.26,16.4v50h28.53V640.24C816.56,615.34,803.36,600.22,780.58,600.22Z"/><path class="cls-1" d="M839.54,602.14v90.68h28.74V602.14ZM854,551.05c-9.8,0-18.31,7.45-18.31,17.88a18.2,18.2,0,0,0,36.4,0A17.76,17.76,0,0,0,854,551.05Z"/><path class="cls-1" d="M968.75,602.14H890.42v23.2H924.9l-39.38,65.14v2.34h79.83v-23.2H928.52l40.23-65.14Z"/><path class="cls-1" d="M1028.57,600.22c-28.1,0-50,19.59-50,47,0,27.88,20.86,47.47,53.22,47.47,19,0,30-5.75,38.75-13.41l-16.4-17.67a39.36,39.36,0,0,1-22.77,7.24c-13,0-20.65-5.33-23.42-14.69h68.76C1078.81,624.49,1061.14,600.22,1028.57,600.22Zm-21.08,39.38c2.35-10.85,10-16,21.29-16s17.67,6,19,16Z"/><path class="cls-1" d="M431.57,188.14a33.33,33.33,0,1,1-33.33-33.33A33,33,0,0,1,431.57,188.14Z"/><path class="cls-2" d="M431.57,188.14a33,33,0,0,1-4.42,16.58c-12.66-19.68-30.65-35.32-45-45.79a33.33,33.33,0,0,1,49.38,29.21Z"/><path class="cls-3" d="M941.05,137.13a7.37,7.37,0,0,1-5.29,2.16l-2.35-1.08-37.2-17.16a71.51,71.51,0,0,0-59.85,0l-39.55,18.24a7.5,7.5,0,0,1-2-.27,7.61,7.61,0,0,1-5.53-7.65,4.12,4.12,0,0,1,0-.6,7.42,7.42,0,0,1,1.74-3.93l32.4-38.51L860,44.84l.5-.6a7.59,7.59,0,0,1,11.23-.38,4.26,4.26,0,0,1,.35.38l37.08,44.09,32.4,38.51A7.54,7.54,0,0,1,941.05,137.13Z"/><path d="M573,270c-12.32,10.15-26.39,17.82-38.77,28-6.29,5.17-15.12,11.52-17.47,19.68,10.19-6.31,18.84-14.6,27.56-22.71C553.57,286.33,563.32,278.22,573,270Z"/><path class="cls-1" d="M238.22,31.92a59.59,59.59,0,1,1-80.41-25.1A59.3,59.3,0,0,1,238.22,31.92Z"/><path class="cls-1" d="M345.66,102.77A36,36,0,1,1,298,84.89,35.9,35.9,0,0,1,345.66,102.77Z"/><path class="cls-1" d="M483.66,269.56a23.42,23.42,0,1,1-23.4-23.4A23.34,23.34,0,0,1,483.66,269.56Z"/><path class="cls-1" d="M893.83,264.68q-1.7-1.59-3.42-3.17c-17.79-16.18-37.38-30.4-59.82-39.41C795.52,208,756.4,208.8,720,216.83c-28.36,6.25-55.69,16.77-81.76,29.46-20.09,9.77-39.54,20.81-58.62,32.42q-7.89,4.79-15.68,9.7c-10.87,6.82-26.52,16.47-40.11,24.74l-13.42,8.11c9.55-5.94,25.91-19.07,33.63-26.18,1.4-1.29,2.8-2.57,4.22-3.83q16.14-14.55,33.43-27.75,2.75-2.1,5.53-4.16h0l0,0a527.33,527.33,0,0,1,51.1-33.59c28.14-16.24,58-27.78,90.09-33.46q6.35-1.12,12.72-2a216.81,216.81,0,0,1,34.92-2.07c43.85,1,83.51,21,116.24,49.35.34,3.06.76,7.42,1.07,12.54.18,2.74.32,5.69.38,8.76C893.82,260.74,893.84,262.7,893.83,264.68Z"/><path class="cls-1" d="M494.81,332.66C447.1,363.33,377,402,276.08,445.67l-.36.15-.61.26-1.15.46c-.33.13-.7.27-1.11.41a69.91,69.91,0,0,1-11.53,3.39l-.74.15a60.1,60.1,0,0,1-35-3.78l-.12-.06c-14.07-5.93-26.75-16.87-37.91-30.84l0,0a202.63,202.63,0,0,1-20.36-31.57c-.21-.39-.42-.78-.62-1.17a313.88,313.88,0,0,1-18.93-44.82c-.05-.12-.08-.23-.12-.35a0,0,0,0,1,0,0l-.09-.25a.76.76,0,0,1,0-.11l0-.12s0,0,0,0c-13.36-39.88-18.82-79.62-15.12-99.42,9.92-53.18,91.46-52.47,91.46-52.47s-20.56,156,58.14,190.74c33.07,14.6,92.27-3.69,149.83-29.82,77.51-35.2,152-84.6,155.54-86.95l.1-.07c-.37.47-5.94,7.46-19.91,19.85a506.55,506.55,0,0,1-43.48,34q-12,8.48-26.77,18.07"/><path class="cls-4" d="M491.84,325.38c2,2.12,3,3.3,5.21,5.84-47.71,30.67-120,70.81-221,114.45l-.36.15-.61.26-1.15.46a89.1,89.1,0,0,1-12.64,3.8l-.74.15a56.22,56.22,0,0,1-18.24,1.08,59.78,59.78,0,0,1-16.8-4.86l-.12-.06c-13.06-6-23.83-16.6-37.91-30.84l0,0c-7-7.08-14.09-19.06-20.36-31.57a466.36,466.36,0,0,1-19.55-46c0-.13-.09-.25-.12-.35a0,0,0,0,1,0,0l-.09-.25a.76.76,0,0,1,0-.11,1.2,1.2,0,0,1-.06-.17l0,0s0,0,0,0C148.77,340,172,380.73,225,405.42c54.77,25.52,164.5-25.19,164.5-25.19C417.06,367.69,454.58,347.2,491.84,325.38Z"/><path class="cls-4" d="M893.77,262.26c-4.69-4.22-11.13-9.86-16.16-13.91-.78-.61-1.55-1.24-2.33-1.84l-1.67-1.28c-1.09-.83-2.19-1.66-3.3-2.47a.18.18,0,0,1-.07,0c-.83-.61-1.66-1.21-2.5-1.8-.56-.4-1.12-.8-1.69-1.18l-.33-.23c-.22-.16-.43-.31-.65-.45h0l-.75-.5c-4.67-3.18-9.47-6.16-14.42-8.89-.45-.26-.91-.51-1.37-.75l-2-1.06c-.51-.27-1-.54-1.54-.79l-.66-.34-1.68-.83c-.72-.36-1.44-.71-2.17-1s-1.65-.77-2.49-1.15-1.91-.85-2.88-1.26-1.93-.82-2.91-1.21c-35.07-14.09-74.19-13.3-110.6-5.27-28.36,6.25-55.69,16.77-81.76,29.47-20.09,9.77-39.54,20.8-58.62,32.41q-7.89,4.79-15.68,9.7C554.69,294.35,539,304,525.45,312.26c-8,5.65-18.52,12.57-28.4,19-1.62-1.91-3.41-3.8-5.21-5.84,11.21-6.58,24.15-14.23,35.35-21.05q11.46-7,22.69-14l.33-.21c6.34-3.95,12.61-7.92,18.72-11.85q7.14-4.62,14-9.18C644.6,228,690.7,207,760.19,198.88c38.59-4.53,77.62,12.92,104.7,29.33q4.46,2.7,8.45,5.32l1.68,1.11c7.61,5.06,13.81,9.69,18.2,13.14,0,.76.1,1.53.14,2.29.16,2.78.28,5.56.35,8.36,0,.15,0,.3,0,.45C893.75,260,893.77,261.13,893.77,262.26Z"/><path class="cls-4" d="M431.57,346.36c-8.71,8.17-17.3,13.75-31.1,20.22-20,9.38-97.85,31.39-128.7,19.15s-56.91-63.82-65.94-119.66,17.77-80.64,17.77-80.64-20.56,156,58.14,190.75C314.81,390.78,374,372.48,431.57,346.36Z"/><path class="cls-5" d="M836,372.94c-4.47,21.27-19,49.33-62.94,61.9-75.51,21.62-120.89,3.89-153.87-8.87-8.32-3.22-16.84-8.11-21.1-15q12.93,6.94,26.4,12.56a245.21,245.21,0,0,0,38.91,12.7,195.81,195.81,0,0,0,39.87,5.32A157.91,157.91,0,0,0,742.58,438a144.24,144.24,0,0,0,36.6-13.33,168.15,168.15,0,0,0,16.69-10.09,144.32,144.32,0,0,0,15.18-12.13A148.69,148.69,0,0,0,836,372.94Z"/><path class="cls-2" d="M238.22,31.92A59.3,59.3,0,0,1,243.91,71c-32.08-22-80.93-36.15-109-43a59.59,59.59,0,0,1,103.31,3.87Z"/><path class="cls-2" d="M345.66,102.77a35.9,35.9,0,0,1-1.08,32c-14.7-21.22-42.53-37.49-55.35-44.22a36,36,0,0,1,56.43,12.27Z"/><path class="cls-2" d="M483.66,269.56a23.34,23.34,0,0,1-9.55,18.86c-5.66-15-16-30.82-22.85-40.47a23.42,23.42,0,0,1,32.4,21.61Z"/><path class="cls-6" d="M933.41,138.21l-37.2-17.16a71.51,71.51,0,0,0-59.85,0l-39.55,18.24a7.5,7.5,0,0,1-2-.27c13.63-9.05,47.46-29.33,75-29.56S927,132.84,933.41,138.21Z"/><path class="cls-6" d="M871.72,43.86c-5.34,9.8-13.51,21.4-26,34.41-26.84,28.05-46.54,45-56.53,53.1a4.12,4.12,0,0,1,0-.6,7.42,7.42,0,0,1,1.74-3.93l32.4-38.51L860,44.84l.5-.6a7.59,7.59,0,0,1,11.23-.38Z"/><path class="cls-3" d="M893.79,264.64a299.86,299.86,0,0,1-2.49,38.42,231.45,231.45,0,0,1-10.15,44.42,182.18,182.18,0,0,1-20.39,41.59,174.77,174.77,0,0,1-14.14,18.51,177.58,177.58,0,0,1-16.52,16.29,171.46,171.46,0,0,1-18.45,14,176,176,0,0,1-20.14,11.39,171.77,171.77,0,0,1-43.9,14.14A182.56,182.56,0,0,1,702,465.49,214.33,214.33,0,0,1,657.83,457a258,258,0,0,1-41.11-16.57,305.35,305.35,0,0,1-71.14-50.39c-2.64-2.47-5.23-5-7.75-7.57l-7.52-7.61c-5-5.11-10-10.29-14.8-15.64-1.55-1.73-3.08-3.48-4.57-5.26-5.77-6.85-11.1-14-16.13-21.32l2.24-1.44c2.62,2.92,5.27,5.8,8,8.63,4.89,5.11,10,10,15.18,14.71s10.64,9.26,16.1,13.77l8.25,6.74c2.76,2.23,5.48,4.37,8.25,6.54A337.32,337.32,0,0,0,598.12,411a288,288,0,0,0,26.4,12.56,245.25,245.25,0,0,0,38.91,12.71,195.79,195.79,0,0,0,39.87,5.31A157.43,157.43,0,0,0,742.58,438a144.24,144.24,0,0,0,36.6-13.33,168.07,168.07,0,0,0,16.69-10.08,145.72,145.72,0,0,0,15.18-12.14A148.63,148.63,0,0,0,836,373s0,0,0,0a153,153,0,0,0,16.54-35.07,203.86,203.86,0,0,0,8.6-38.66,345.43,345.43,0,0,0,2.3-40.49q.07-9.33-.06-18.75h0q-.08-5.4-.18-10.83-.12-5.9-.27-11.82l0-1.56-.47-19.48c-.18-7.05-.32-14.15-.37-21.27-.08-14.27-.1-28.67,1.3-43.31l1.35-.22c3.29,7.35,6.18,14.77,8.79,22.26q3.24,9.26,6,18.66,3.06,10.39,5.51,21c1.69,7.05,3.1,14.16,4.31,21.35.26,1.53.5,3.06.74,4.59s.42,2.77.62,4.17c.17,1.16.33,2.33.48,3.5.06.42.11.84.16,1.26,0,.22.06.45.08.68.15,1.12.28,2.25.41,3.37q.74,6.48,1.21,13c0,.22,0,.43,0,.65q.06.67.09,1.35c.07,1,.12,1.9.18,2.85.07,1.28.13,2.56.18,3.85,0,.14,0,.28,0,.42,0,1.34.1,2.68.13,4,0,.15,0,.3,0,.45,0,.93,0,1.87,0,2.81S893.79,263.65,893.79,264.64Z"/><path class="cls-6" d="M891.3,303.06a231.45,231.45,0,0,1-10.15,44.42,182.18,182.18,0,0,1-20.39,41.59,174.77,174.77,0,0,1-14.14,18.51,177.58,177.58,0,0,1-16.52,16.29,171.46,171.46,0,0,1-18.45,14,176,176,0,0,1-20.14,11.39,171.77,171.77,0,0,1-43.9,14.14A182.56,182.56,0,0,1,702,465.49,214.33,214.33,0,0,1,657.83,457a258,258,0,0,1-41.11-16.57,305.35,305.35,0,0,1-71.14-50.39c-2.64-2.47-5.23-5-7.75-7.57l-7.52-7.61c-5-5.11-10-10.29-14.8-15.64-1.55-1.73-3.08-3.48-4.57-5.26,1.48,1.61,3,3.2,4.48,4.78,4.9,5.11,10,10,15.2,14.7s10.63,9.27,16.1,13.77L555,394c2.76,2.25,5.49,4.39,8.25,6.54a321.11,321.11,0,0,0,71.7,42,247.65,247.65,0,0,0,38.91,12.71,196.17,196.17,0,0,0,39.89,5.31A158.51,158.51,0,0,0,753,456.87a144.48,144.48,0,0,0,36.6-13.33,165.74,165.74,0,0,0,16.68-10.09,144.44,144.44,0,0,0,15.19-12.13,149.14,149.14,0,0,0,25-29.49A152.54,152.54,0,0,0,863,356.75a203.78,203.78,0,0,0,8.59-38.67,343.06,343.06,0,0,0,2.29-40.47c.08-10,0-20.07-.24-30.21,0-.72,0-1.45,0-2.17-.06-3-.13-6-.21-9v-.65l0-2-.45-18.38c-.18-7-.31-14.14-.38-21.26-.07-13.25-.08-26.62,1-40.19q3.24,9.26,6,18.66,3.06,10.39,5.51,21c1.69,7.05,3.1,14.16,4.31,21.35a315.57,315.57,0,0,1,3.85,33.08c0,.76.1,1.53.14,2.29.16,2.78.28,5.56.35,8.36,0,.15,0,.3,0,.45,0,1.13,0,2.25,0,3.38A298.37,298.37,0,0,1,891.3,303.06Z"/></g></g></svg>